# xmcd
#
# Track frame offsets: 
#        180
#        12375
#        27849
#        43031
#        59004
#        81652
#        94297
#        105695
#        122243
#        136147
#        150248
#
# Disc length: 2161 seconds
#
# Revision: 0
# Processed by: cddbd v1.5PL3 Copyright (c) Steve Scherf et al.
# Submitted via: ExactAudioCopy v0.95a4
#
DISCID=91086f0b
DTITLE=Rob Mashburn - My River of Memories
DYEAR=2000
DGENRE=Bluegrass
TTITLE0=River of Memories
TTITLE1=Gypsy Lady
TTITLE2=Play Fiddles Play
TTITLE3=On My Mind
TTITLE4=Hobo's Lullaby
TTITLE5=Long Time Lonesome
TTITLE6=Them Old Songs
TTITLE7=Lazy Day
TTITLE8=Leaving a Light
TTITLE9=The Fiddler
TTITLE10=Ashokian Farewell
EXTD=
EXTT0=
EXTT1=
EXTT2=
EXTT3=
EXTT4=
EXTT5=
EXTT6=
EXTT7=
EXTT8=
EXTT9=
EXTT10=
PLAYORDER=
